<mxfile host="app.diagrams.net" modified="2024-07-06T20:26:32.753Z" agent="Mozilla/5.0 (Macintosh; Intel Mac OS X 10_15_7) AppleWebKit/537.36 (KHTML, like Gecko) Chrome/126.0.0.0 Safari/537.36" version="24.6.4" etag="ZrHEJOc6xutg07mMF6Vx" type="github">
  <diagram name="Page-1" id="z4_C3fXnJV2Gikk5u2Vy">
    <mxGraphModel>
      <root>
        <mxCell id="0" />
        <mxCell id="1" parent="0" />
      </root>
    </mxGraphModel>
  </diagram>
</mxfile>
